<?xml version="1.0" encoding="UTF-8" standalone="no"?>
<!DOCTYPE svg PUBLIC "-//W3C//DTD SVG 1.1//EN" "http://www.w3.org/Graphics/SVG/1.1/DTD/svg11.dtd">
<svg width="100%" height="100%" viewBox="0 0 22 23" version="1.1" xmlns="http://www.w3.org/2000/svg" xmlns:xlink="http://www.w3.org/1999/xlink" xml:space="preserve" xmlns:serif="http://www.serif.com/" style="fill-rule:evenodd;clip-rule:evenodd;stroke-linejoin:round;stroke-miterlimit:2;">
    <g transform="matrix(1,0,0,1,-22,-25)">
        <g id="id" transform="matrix(1,0,0,1,25,0)">
            <path d="M2.817,24L0.5,24C0.224,24 -0,23.776 -0,23.5L-0,0.5C-0,0.224 0.224,-0 0.5,-0L23.5,-0C23.776,-0 24,0.224 24,0.5L24,23.5C24,23.776 23.776,24 23.5,24C23.5,24 21.17,24 21.164,24C21.164,24 2.823,24 2.817,24ZM21.564,23L23,23L23,1L1,1L1,23L2.436,23C3.362,19.581 6.047,16.962 9.366,16.04C7.529,15.086 6.273,13.166 6.273,10.955C6.273,7.794 8.839,5.227 12,5.227C15.161,5.227 17.727,7.794 17.727,10.955C17.727,13.166 16.471,15.086 14.634,16.04C17.953,16.962 20.638,19.581 21.564,23ZM3.476,23L20.524,23C19.393,19.283 15.931,16.682 12,16.682C8.069,16.682 4.607,19.283 3.476,23ZM12,15.682C14.609,15.682 16.727,13.564 16.727,10.955C16.727,8.345 14.609,6.227 12,6.227C9.391,6.227 7.273,8.345 7.273,10.955C7.273,13.564 9.391,15.682 12,15.682Z"/>
        </g>
        <g id="check_failed">
        </g>
        <g id="check_success" transform="matrix(1,0,0,1,21,-1004.4)">
            <g transform="matrix(1,0,0,1,0,1029.4)">
                <path d="M22,12C22,17.523 17.523,22 12,22C6.477,22 2,17.523 2,12C2,6.477 6.477,2 12,2C17.523,2 22,6.477 22,12Z" style="fill:rgb(39,174,96);fill-rule:nonzero;"/>
            </g>
            <g transform="matrix(1,0,0,1,0,1028.4)">
                <path d="M22,12C22,17.523 17.523,22 12,22C6.477,22 2,17.523 2,12C2,6.477 6.477,2 12,2C17.523,2 22,6.477 22,12Z" style="fill:rgb(46,204,113);fill-rule:nonzero;"/>
            </g>
            <path d="M16,1037.4L10,1043.4L7.5,1040.9L5.375,1043L9.875,1047.5L10,1047.6L18.125,1039.5L16,1037.4Z" style="fill:rgb(39,174,96);fill-rule:nonzero;"/>
            <path d="M16,1036.4L10,1042.4L7.5,1039.9L5.375,1042L9.875,1046.5L10,1046.6L18.125,1038.5L16,1036.4Z" style="fill:rgb(236,240,241);fill-rule:nonzero;"/>
        </g>
        <g id="check_none">
        </g>
    </g>
</svg>
