<?xml version="1.0" encoding="UTF-8" standalone="no"?>
<!DOCTYPE svg PUBLIC "-//W3C//DTD SVG 1.1//EN" "http://www.w3.org/Graphics/SVG/1.1/DTD/svg11.dtd">
<svg width="100%" height="100%" viewBox="0 0 29 24" version="1.1" xmlns="http://www.w3.org/2000/svg" xmlns:xlink="http://www.w3.org/1999/xlink" xml:space="preserve" xmlns:serif="http://www.serif.com/" style="fill-rule:evenodd;clip-rule:evenodd;stroke-linejoin:round;stroke-miterlimit:2;">
    <g transform="matrix(1,0,0,1,-50,0)">
        <g transform="matrix(1,0,0,1,50,0)">
            <path d="M2,12L0.5,12C0.224,12 0,11.776 0,11.5C-0,11.224 0.224,11 0.5,11L2.21,11L5.778,4.753C6.043,4.286 6.54,3.998 7.075,4L21.923,4C22.46,3.998 22.957,4.286 23.222,4.752L26.79,11L28.5,11C28.776,11 29,11.224 29,11.5C29,11.776 28.776,12 28.5,12L27,12L27,22.5C27,23.323 26.323,24 25.5,24L22.5,24C21.677,24 21,23.323 21,22.5L21,20L8,20L8,22.5C8,23.323 7.323,24 6.5,24L3.5,24C2.677,24 2,23.323 2,22.5L2,12ZM25.639,11L22.353,5.247C22.266,5.094 22.103,4.999 21.927,5L21.925,5L7.075,5L7.073,5C6.897,4.999 6.734,5.094 6.647,5.247L3.361,11L25.639,11ZM26,20L22,20L22,22.5C22,22.774 22.226,23 22.5,23L25.5,23C25.774,23 26,22.774 26,22.5L26,20ZM21.5,19C24.15,19 26,19 26,19L26,12L3,12C3,13.489 3,19 3,19C3,19 4.85,19 7.5,19C11.545,19 17.455,19 21.5,19ZM3,20L3,22.5C3,22.774 3.226,23 3.5,23L6.5,23C6.774,23 7,22.774 7,22.5L7,20L3,20ZM6.5,16C6.224,16 6,15.776 6,15.5C6,15.224 6.224,15 6.5,15L8.5,15C8.776,15 9,15.224 9,15.5C9,15.776 8.776,16 8.5,16L6.5,16ZM20.5,16C20.224,16 20,15.776 20,15.5C20,15.224 20.224,15 20.5,15L22.5,15C22.776,15 23,15.224 23,15.5C23,15.776 22.776,16 22.5,16L20.5,16ZM11.5,1C11.224,1 11,0.776 11,0.5C11,0.224 11.224,-0 11.5,0L17.5,0C17.776,-0 18,0.224 18,0.5C18,0.776 17.776,1 17.5,1L11.5,1Z"/>
        </g>
    </g>
</svg>
