<?xml version="1.0" encoding="UTF-8" standalone="no"?>
<!DOCTYPE svg PUBLIC "-//W3C//DTD SVG 1.1//EN" "http://www.w3.org/Graphics/SVG/1.1/DTD/svg11.dtd">
<svg width="100%" height="100%" viewBox="0 0 24 24" version="1.1" xmlns="http://www.w3.org/2000/svg" xmlns:xlink="http://www.w3.org/1999/xlink" xml:space="preserve" xmlns:serif="http://www.serif.com/" style="fill-rule:evenodd;clip-rule:evenodd;stroke-linejoin:round;stroke-miterlimit:2;">
    <g transform="matrix(0.130682,0,0,0.126941,-4.72727,-3.92073)">
        <path id="home" d="M148.174,208L148.174,160C148.174,157.74 146.26,155.939 144,155.939L112,155.939C109.74,155.939 107.826,157.74 107.826,160L107.826,208C107.826,214.518 102.518,219.939 96,219.939L48,219.939C41.482,219.939 36.174,214.518 36.174,208L36.174,115.5C36.174,115.478 36.174,115.456 36.174,115.434C36.228,112.125 37.607,108.97 40.014,106.698C40.032,106.681 40.05,106.664 40.068,106.647L120.058,33.956C124.53,29.864 131.47,29.864 135.932,33.947L215.932,106.647C215.95,106.664 215.968,106.681 215.986,106.698C218.393,108.97 219.772,112.125 219.826,115.434C219.826,115.456 219.826,115.478 219.826,115.5L219.826,208C219.826,214.518 214.518,219.939 208,219.939L160,219.939C153.482,219.939 148.174,214.518 148.174,208ZM155.826,208C155.826,210.26 157.74,212.061 160,212.061L208,212.061C210.26,212.061 212.174,210.26 212.174,208C212.174,208 212.174,115.547 212.173,115.505C212.138,114.373 211.65,113.301 210.83,112.518L130.868,39.853L130.858,39.844C129.249,38.372 126.751,38.372 125.142,39.844L125.132,39.853C125.132,39.853 45.17,112.518 45.143,112.544C44.329,113.335 43.849,114.412 43.826,115.547L43.826,208C43.826,210.26 45.74,212.061 48,212.061L96,212.061C98.26,212.061 100.174,210.26 100.174,208L100.174,160C100.174,153.482 105.482,148.061 112,148.061L144,148.061C150.518,148.061 155.826,153.482 155.826,160L155.826,208Z"/>
    </g>
</svg>
