<?xml version="1.0" encoding="UTF-8" standalone="no"?>
<!DOCTYPE svg PUBLIC "-//W3C//DTD SVG 1.1//EN" "http://www.w3.org/Graphics/SVG/1.1/DTD/svg11.dtd">
<svg width="100%" height="100%" viewBox="0 0 24 24" version="1.1" xmlns="http://www.w3.org/2000/svg" xmlns:xlink="http://www.w3.org/1999/xlink" xml:space="preserve" xmlns:serif="http://www.serif.com/" style="fill-rule:evenodd;clip-rule:evenodd;stroke-linejoin:round;stroke-miterlimit:2;">
    <g transform="matrix(1,0,0,1,-103,0)">
        <g id="print" transform="matrix(0.96,0,0,0.96,-0.808544,-2.80199)">
            <path d="M112.634,9.919L112.634,2.919L128.634,2.919L128.634,9.919L131.634,9.919C132.462,9.919 133.134,10.591 133.134,11.419L133.134,21.919C133.134,22.747 132.462,23.419 131.634,23.419L128.634,23.419L128.634,27.919L112.634,27.919L112.634,23.419L109.634,23.419C108.806,23.419 108.134,22.747 108.134,21.919L108.134,11.419C108.134,10.591 108.806,9.919 109.634,9.919L112.634,9.919ZM112.634,22.419L112.634,16.919L128.634,16.919L128.634,22.419L131.634,22.419C131.91,22.419 132.134,22.195 132.134,21.919L132.134,11.419C132.134,11.143 131.91,10.919 131.634,10.919L109.634,10.919C109.358,10.919 109.134,11.143 109.134,11.419L109.134,21.919C109.134,22.195 109.358,22.419 109.634,22.419L112.634,22.419ZM127.634,17.919L113.634,17.919L113.634,26.919L127.634,26.919L127.634,17.919ZM113.634,9.919L127.634,9.919L127.634,3.919C127.634,3.919 113.634,3.919 113.634,3.919L113.634,9.919ZM125.634,23.919C125.91,23.919 126.134,24.143 126.134,24.419C126.134,24.695 125.91,24.919 125.634,24.919L115.634,24.919C115.358,24.919 115.134,24.695 115.134,24.419C115.134,24.143 115.358,23.919 115.634,23.919L125.634,23.919ZM123.634,21.919C123.91,21.919 124.134,22.143 124.134,22.419C124.134,22.695 123.91,22.919 123.634,22.919L115.634,22.919C115.358,22.919 115.134,22.695 115.134,22.419C115.134,22.143 115.358,21.919 115.634,21.919L123.634,21.919ZM125.634,19.919C125.91,19.919 126.134,20.143 126.134,20.419C126.134,20.695 125.91,20.919 125.634,20.919L115.634,20.919C115.358,20.919 115.134,20.695 115.134,20.419C115.134,20.143 115.358,19.919 115.634,19.919L125.634,19.919ZM129.634,12.419C130.186,12.419 130.634,12.867 130.634,13.419C130.634,13.971 130.186,14.419 129.634,14.419C129.082,14.419 128.634,13.971 128.634,13.419C128.634,12.867 129.082,12.419 129.634,12.419Z"/>
        </g>
        <g id="check_failed">
        </g>
        <g id="check_success">
        </g>
        <g id="check_none">
        </g>
    </g>
</svg>
