<?xml version="1.0" encoding="UTF-8" standalone="no"?>
<!DOCTYPE svg PUBLIC "-//W3C//DTD SVG 1.1//EN" "http://www.w3.org/Graphics/SVG/1.1/DTD/svg11.dtd">
<svg width="100%" height="100%" viewBox="0 0 22 24" version="1.1" xmlns="http://www.w3.org/2000/svg" xmlns:xlink="http://www.w3.org/1999/xlink" xml:space="preserve" xmlns:serif="http://www.serif.com/" style="fill-rule:evenodd;clip-rule:evenodd;stroke-linejoin:round;stroke-miterlimit:2;">
    <g transform="matrix(1,0,0,1,-80,0)">
        <g transform="matrix(0.989767,0,0,0.989767,-18.7458,-18.9598)">
            <path id="refresh" d="M112.542,36.812C112.647,36.53 112.962,36.386 113.244,36.492L117.716,38.16C117.773,38.181 117.807,38.242 117.794,38.302L116.803,42.971C116.749,43.228 116.522,43.404 116.269,43.404C116.231,43.404 116.193,43.4 116.155,43.392C115.86,43.329 115.672,43.039 115.734,42.744C115.734,42.744 116.326,39.957 116.325,39.957C114.657,40.97 112.76,41.503 110.781,41.503C104.875,41.503 100.07,36.698 100.07,30.791C100.07,30.49 100.315,30.245 100.616,30.245C100.918,30.245 101.163,30.49 101.163,30.791C101.163,36.095 105.478,40.41 110.781,40.41C112.726,40.41 114.583,39.837 116.178,38.753L112.863,37.516C112.58,37.41 112.436,37.095 112.542,36.812ZM110.939,21.057C116.846,21.057 121.651,25.862 121.651,31.768C121.651,32.069 121.406,32.314 121.104,32.314C120.803,32.314 120.558,32.069 120.558,31.768C120.558,26.464 116.243,22.15 110.94,22.15C108.994,22.15 107.137,22.722 105.543,23.806L108.858,25.044C109.141,25.149 109.285,25.464 109.179,25.747C109.097,25.967 108.889,26.103 108.667,26.103C108.604,26.103 108.539,26.091 108.476,26.068L104.005,24.4C103.947,24.378 103.914,24.318 103.927,24.258L104.918,19.589C104.98,19.294 105.271,19.105 105.565,19.168C105.861,19.23 106.049,19.52 105.987,19.816C105.987,19.816 105.395,22.602 105.396,22.602C107.063,21.589 108.96,21.057 110.939,21.057Z"/>
        </g>
    </g>
</svg>
