<svg xmlns="http://www.w3.org/2000/svg" xml:space="preserve" style="fill-rule:evenodd;clip-rule:evenodd;stroke-linejoin:round;stroke-miterlimit:2" viewBox="0 0 24 24">
    <path d="M4.32 6.72V0h15.36v6.72h2.88c.795 0 1.44.645 1.44 1.44v10.08a1.44 1.44 0 0 1-1.44 1.44h-2.88V24H4.32v-4.32H1.44A1.44 1.44 0 0 1 0 18.24V8.16c0-.795.645-1.44 1.44-1.44h2.88Zm0 12v-5.28h15.36v5.28h2.88a.48.48 0 0 0 .48-.48V8.16a.48.48 0 0 0-.48-.48H1.44a.48.48 0 0 0-.48.48v10.08c0 .265.215.48.48.48h2.88Zm14.4-4.32H5.28v8.64h13.44V14.4ZM5.28 6.72h13.44V.96H5.28v5.76ZM16.8 20.16a.48.48 0 0 1 0 .96H7.2a.48.48 0 0 1 0-.96h9.6Zm-1.92-1.92a.48.48 0 0 1 0 .96H7.2a.48.48 0 0 1 0-.96h7.68Zm1.92-1.92a.48.48 0 0 1 0 .96H7.2a.48.48 0 0 1 0-.96h9.6Zm3.84-7.2a.96.96 0 1 1 0 1.921.96.96 0 0 1 0-1.92Z"/>
</svg>
