<svg xmlns="http://www.w3.org/2000/svg" xml:space="preserve" style="fill-rule:evenodd;clip-rule:evenodd;stroke-linejoin:round;stroke-miterlimit:2" viewBox="0 0 22 24"><path d="M12.645 17.476a.54.54 0 0 1 .694-.317l4.427 1.65c.056.021.09.082.077.141l-.981 4.621a.54.54 0 1 1-1.058-.224l.585-2.759a10.514 10.514 0 0 1-5.487 1.53C5.056 22.118.3 17.363.3 11.516a.541.541 0 0 1 1.082 0c0 5.25 4.27 9.52 9.52 9.52a9.444 9.444 0 0 0 5.341-1.64l-3.28-1.224a.541.541 0 0 1-.318-.696ZM11.058 1.882c5.847 0 10.602 4.756 10.602 10.601a.541.541 0 0 1-1.081 0c0-5.25-4.271-9.52-9.52-9.52a9.438 9.438 0 0 0-5.342 1.64l3.281 1.225A.54.54 0 1 1 8.62 6.84l-4.425-1.65a.122.122 0 0 1-.077-.141l.98-4.621a.54.54 0 1 1 1.059.224l-.585 2.758a10.507 10.507 0 0 1 5.486-1.53Z"/></svg>