<?xml version="1.0" encoding="UTF-8" standalone="no"?>
<!DOCTYPE svg PUBLIC "-//W3C//DTD SVG 1.1//EN" "http://www.w3.org/Graphics/SVG/1.1/DTD/svg11.dtd">
<svg width="100%" height="100%" viewBox="0 0 22 23" version="1.1" xmlns="http://www.w3.org/2000/svg" xmlns:xlink="http://www.w3.org/1999/xlink" xml:space="preserve" xmlns:serif="http://www.serif.com/" style="fill-rule:evenodd;clip-rule:evenodd;stroke-linejoin:round;stroke-miterlimit:2;">
    <g transform="matrix(1,0,0,1,0,-25)">
        <g id="check_failed">
        </g>
        <g id="check_success">
        </g>
        <g id="check_none" transform="matrix(1,0,0,1,-1,-1004.4)">
            <g transform="matrix(1,0,0,1,0,1029.4)">
                <path d="M22,12C22,17.523 17.523,22 12,22C6.477,22 2,17.523 2,12C2,6.477 6.477,2 12,2C17.523,2 22,6.477 22,12Z" style="fill:rgb(140,140,140);fill-rule:nonzero;"/>
            </g>
            <g transform="matrix(1,0,0,1,0,1028.4)">
                <path d="M22,12C22,17.523 17.523,22 12,22C6.477,22 2,17.523 2,12C2,6.477 6.477,2 12,2C17.523,2 22,6.477 22,12Z" style="fill:rgb(166,166,166);fill-rule:nonzero;"/>
            </g>
            <path d="M16,1037.4L10,1043.4L7.5,1040.9L5.375,1043L9.875,1047.5L10,1047.6L18.125,1039.5L16,1037.4Z" style="fill:rgb(140,140,140);fill-rule:nonzero;"/>
            <path d="M16,1036.4L10,1042.4L7.5,1039.9L5.375,1042L9.875,1046.5L10,1046.6L18.125,1038.5L16,1036.4Z" style="fill:rgb(236,240,241);fill-rule:nonzero;"/>
        </g>
    </g>
</svg>
