<svg xmlns="http://www.w3.org/2000/svg" xmlns:xlink="http://www.w3.org/1999/xlink" width="0" height="0" style="display:none;"><symbol viewBox="0 0 29 24" id="CardReader-car"><path d="M2 12H.5a.5.5 0 0 1 0-1h1.71l3.568-6.247A1.487 1.487 0 0 1 7.075 4h14.848a1.489 1.489 0 0 1 1.299.752L26.79 11h1.71a.5.5 0 0 1 0 1H27v10.5c0 .823-.677 1.5-1.5 1.5h-3c-.823 0-1.5-.677-1.5-1.5V20H8v2.5c0 .823-.677 1.5-1.5 1.5h-3c-.823 0-1.5-.677-1.5-1.5V12Zm23.639-1-3.286-5.753A.488.488 0 0 0 21.927 5H7.073a.488.488 0 0 0-.426.247L3.361 11h22.278ZM26 20h-4v2.5c0 .274.226.5.5.5h3c.274 0 .5-.226.5-.5V20Zm-4.5-1H26v-7H3v7h18.5ZM3 20v2.5c0 .274.226.5.5.5h3c.274 0 .5-.226.5-.5V20H3Zm3.5-4a.5.5 0 0 1 0-1h2a.5.5 0 0 1 0 1h-2Zm14 0a.5.5 0 0 1 0-1h2a.5.5 0 0 1 0 1h-2Zm-9-15a.5.5 0 0 1 0-1h6a.5.5 0 0 1 0 1h-6Z"></path></symbol><symbol viewBox="0 0 24 24" id="CardReader-home"><path d="M14.636 22.483V16.39c0-.287-.25-.516-.545-.516H9.909c-.295 0-.545.229-.545.516v6.093c0 .827-.694 1.516-1.546 1.516H1.545C.694 23.999 0 23.31 0 22.483v-11.75c.007-.42.187-.821.502-1.11l.007-.006L10.962.39a1.577 1.577 0 0 1 2.075-.001L23.49 9.617l.007.007c.315.288.495.689.502 1.109v11.75c0 .827-.694 1.516-1.545 1.516h-6.273c-.852 0-1.546-.689-1.546-1.516Zm1 0c0 .287.25.516.546.516h6.273c.295 0 .545-.23.545-.516V10.742a.542.542 0 0 0-.176-.38l-10.45-9.224a.568.568 0 0 0-.747 0h-.002s-10.45 9.224-10.453 9.228a.54.54 0 0 0-.172.38v11.737c0 .287.25.516.545.516h6.273c.296 0 .546-.23.546-.516V16.39c0-.828.693-1.516 1.545-1.516h4.182c.852 0 1.545.688 1.545 1.516v6.093Z"></path></symbol><symbol viewBox="0 0 24 24" id="CardReader-id"><path d="M2.817 24H.5a.5.5 0 0 1-.5-.5V.5A.5.5 0 0 1 .5 0h23a.5.5 0 0 1 .5.5v23a.5.5 0 0 1-.5.5H2.817Zm18.747-1H23V1H1v22h1.436c.926-3.419 3.611-6.038 6.93-6.96A5.728 5.728 0 0 1 12 5.227a5.728 5.728 0 0 1 2.634 10.813c3.319.922 6.004 3.541 6.93 6.96ZM3.476 23h17.048A8.936 8.936 0 0 0 12 16.682 8.936 8.936 0 0 0 3.476 23ZM12 15.682a4.73 4.73 0 0 0 4.727-4.727A4.73 4.73 0 0 0 12 6.227a4.73 4.73 0 0 0-4.727 4.728A4.73 4.73 0 0 0 12 15.682Z"></path></symbol><symbol viewBox="0 0 22 24" id="CardReader-refresh"><path d="M12.645 17.476a.54.54 0 0 1 .694-.317l4.427 1.65c.056.021.09.082.077.141l-.981 4.621a.54.54 0 1 1-1.058-.224l.585-2.759a10.514 10.514 0 0 1-5.487 1.53C5.056 22.118.3 17.363.3 11.516a.541.541 0 0 1 1.082 0c0 5.25 4.27 9.52 9.52 9.52a9.444 9.444 0 0 0 5.341-1.64l-3.28-1.224a.541.541 0 0 1-.318-.696ZM11.058 1.882c5.847 0 10.602 4.756 10.602 10.601a.541.541 0 0 1-1.081 0c0-5.25-4.271-9.52-9.52-9.52a9.438 9.438 0 0 0-5.342 1.64l3.281 1.225A.54.54 0 1 1 8.62 6.84l-4.425-1.65a.122.122 0 0 1-.077-.141l.98-4.621a.54.54 0 1 1 1.059.224l-.585 2.758a10.507 10.507 0 0 1 5.486-1.53Z"></path></symbol></svg>